<?xml version="1.0" standalone="no"?>
<!DOCTYPE svg PUBLIC "-//W3C//DTD SVG 1.1//EN" "http://www.w3.org/Graphics/SVG/1.1/DTD/svg11.dtd" >
<!--
2013-9-30: Created.
-->
<svg>
<metadata>
Created by iconfont
</metadata>
<defs>

<font id="iconfont" horiz-adv-x="1024" >
  <font-face
    font-family="iconfont"
    font-weight="500"
    font-stretch="normal"
    units-per-em="1024"
    ascent="896"
    descent="-128"
  />
    <missing-glyph />
    
    <glyph glyph-name="uncheck" unicode="&#58941;" d="M512 96c-76.93 0-149.25 29.96-203.65 84.35C253.96 234.75 224 307.07000000000005 224 384s29.96 149.25 84.35 203.65S435.07 672 512 672s149.25-29.96 203.65-84.35C770.04 533.25 800 460.93 800 384s-29.96-149.25-84.35-203.65C661.25 125.96000000000004 588.93 96 512 96z m0 512c-59.83 0-116.08-23.3-158.39-65.61C311.3 500.08 288 443.83 288 384c0-59.83 23.3-116.08 65.61-158.39C395.92 183.29999999999995 452.17 160 512 160c59.83 0 116.08 23.3 158.39 65.61C712.7 267.91999999999996 736 324.16999999999996 736 384c0 59.83-23.3 116.08-65.61 158.39C628.08 584.7 571.83 608 512 608z"  horiz-adv-x="1024" />

    
    <glyph glyph-name="select" unicode="&#58945;" d="M715.65 587.65C661.25 642.04 588.93 672 512 672s-149.25-29.96-203.65-84.35C253.96 533.25 224 460.93 224 384s29.96-149.25 84.35-203.65C362.75 125.96000000000004 435.07 96 512 96s149.25 29.96 203.65 84.35C770.04 234.75 800 307.07000000000005 800 384s-29.96 149.25-84.35 203.65z m-53.02-162.28l-160-160c-6.25-6.25-14.44-9.37-22.63-9.37s-16.38 3.12-22.63 9.37l-96 96c-12.5 12.5-12.5 32.76 0 45.26s32.76 12.5 45.26 0L480 333.25l137.37 137.37c12.5 12.5 32.76 12.5 45.26 0 12.49-12.49 12.49-32.75 0-45.25z"  horiz-adv-x="1024" />

    
    <glyph glyph-name="collect" unicode="&#58884;" d="M512 677.392l121.136-248.451 270.871-39.867L708.005 195.695l46.265-273.088L512 51.536 269.73-77.393l46.266 273.088L119.993 389.074l270.873 39.867L512 677.392M512 734.077c-21.302 0-40.771-12.251-50.204-31.583l-108.12-221.763-241.724-35.547c-21.109-3.118-38.637-18.047-45.227-38.583-6.563-20.535-1.094-43.066 14.165-58.106l174.921-172.598L214.549-67.82c-3.609-21.274 5.032-42.767 22.286-55.43 9.762-7.163 21.301-10.827 32.896-10.827 8.914 0 17.882 2.16 26.087 6.509L512-12.505l216.239-115.063c8.176-4.349 17.117-6.509 26.03-6.509 11.622 0 23.188 3.664 32.923 10.827 17.256 12.69 25.896 34.181 22.287 55.43l-41.29 243.718L943.11 348.496c15.256 15.04 20.727 37.571 14.164 58.106-6.589 20.536-24.118 35.465-45.228 38.583l-241.722 35.547L562.229 702.467C552.797 721.826 533.328 734.077 512 734.077L512 734.077z"  horiz-adv-x="1024" />

    
    <glyph glyph-name="home" unicode="&#58885;" d="M104.749 360.75199999999995c-9.18387-0.001024-18.3503 3.60023-25.2067 10.7536-13.3401 13.9186-12.8701 36.0156 1.04853 49.3558L455.825 780.482c15.0767 14.4562 35.0255 22.4216 56.1671 22.4216 21.1334 0 41.0822-7.96024 56.1733-22.4134l375.241-359.629c13.9186-13.3391 14.3876-35.4361 1.04751-49.3558-13.3391-13.9176-35.4361-14.3886-49.3558-1.04853L519.866 730.078c-4.18798 4.01186-11.542 4.02005-15.728 0.006144L128.898 370.457C122.133 363.97299999999995 113.434 360.75300000000004 104.749 360.75199999999995ZM779.622-34.910999999999944L639.995-34.910999999999944c-44.9118 0-81.4507 36.5379-81.4507 81.4486L558.544 197.80499999999995l-93.0879 0 0-151.268c0-44.9108-36.5389-81.4486-81.4507-81.4486L244.376-34.912000000000035c-44.9118 0-81.4507 36.5379-81.4507 81.4486L162.925 349.072c0 19.2791 15.6287 34.9077 34.9077 34.9077 19.2791 0 34.9077-15.6287 34.9077-34.9077l0-302.534c0-6.41509 5.22013-11.6332 11.6362-11.6332l139.629 0c6.41611 0 11.6362 5.21911 11.6362 11.6332L395.642 232.712c0 19.2791 15.6287 34.9077 34.9077 34.9077l162.903 0c19.2791 0 34.9077-15.6287 34.9077-34.9077l0-186.175c0-6.41509 5.22013-11.6332 11.6352-11.6332l139.628 0c6.41714 0 11.6373 5.21911 11.6373 11.6332L791.261 349.072c0 19.2791 15.6287 34.9077 34.9077 34.9077s34.9077-15.6287 34.9077-34.9077l0-302.534C861.075 1.6259999999999763 824.535-34.910999999999944 779.622-34.910999999999944ZM861.369 570.197c-19.2791 0-34.9077 15.6287-34.9077 34.9077l0 127.995L698.469 733.1c-19.2791 0-34.9077 15.6287-34.9077 34.9077s15.6287 34.9077 34.9077 34.9077l127.995 0c38.4957 0 69.8134-31.3187 69.8134-69.8154l0-127.995C896.277 585.826 880.648 570.197 861.369 570.197Z"  horiz-adv-x="1024" />

    
    <glyph glyph-name="category" unicode="&#58886;" d="M151.277 651.671l-46.544 0c-19.2791 0-34.9077 15.6287-34.9077 34.9077s15.6287 34.9077 34.9077 34.9077l46.544 0c19.2791 0 34.9077-15.6287 34.9077-34.9077S170.556 651.671 151.277 651.671ZM919.255 651.671L290.918 651.671c-19.2791 0-34.9077 15.6287-34.9077 34.9077s15.6287 34.9077 34.9077 34.9077l628.338 0c19.2791 0 34.9077-15.6287 34.9077-34.9077S938.535 651.671 919.255 651.671ZM151.277 349.091l-46.544 0c-19.2791 0-34.9077 15.6297-34.9077 34.9077 0 19.2791 15.6287 34.9077 34.9077 34.9077l46.544 0c19.2791 0 34.9077-15.6287 34.9077-34.9077C186.184 364.721 170.556 349.091 151.277 349.091ZM919.255 349.091L290.918 349.091c-19.2791 0-34.9077 15.6297-34.9077 34.9077s15.6287 34.9077 34.9077 34.9077l628.338 0c19.2791 0 34.9077-15.6287 34.9077-34.9077S938.535 349.091 919.255 349.091ZM151.277 46.55899999999997l-46.544 0c-19.2791 0-34.9077 15.6287-34.9077 34.9077s15.6287 34.9077 34.9077 34.9077l46.544 0c19.2791 0 34.9077-15.6287 34.9077-34.9077S170.556 46.55899999999997 151.277 46.55899999999997ZM919.255 46.55899999999997L290.918 46.55899999999997c-19.2791 0-34.9077 15.6287-34.9077 34.9077s15.6287 34.9077 34.9077 34.9077l628.338 0c19.2791 0 34.9077-15.6287 34.9077-34.9077S938.535 46.55899999999997 919.255 46.55899999999997Z"  horiz-adv-x="1024" />

    
    <glyph glyph-name="cart" unicode="&#58887;" d="M430.441 58.222999999999956c32.1348 0 58.1792-26.0454 58.1792-58.1792s-26.0443-58.1782-58.1792-58.1782-58.1782 26.0443-58.1782 58.1782S398.307 58.222999999999956 430.441 58.222999999999956ZM732.971 58.222999999999956c32.1348 0 58.1782-26.0454 58.1782-58.1792s-26.0443-58.1782-58.1782-58.1782-58.1782 26.0443-58.1782 58.1782S700.836 58.222999999999956 732.971 58.222999999999956ZM802.785 104.76499999999998L383.898 104.76499999999998c-43.0103 0-81.4763 33.3001-87.662 75.8414l-85.7206 559.314c-0.018431 0.116731-0.035838 0.234486-0.052222 0.351217-1.18165 8.27357-10.1986 16.0956-18.5541 16.0956l-87.28 0c-19.2791 0-34.9067 15.6287-34.9067 34.9067s15.6287 34.9067 34.9067 34.9067l87.28 0c43.0021 0 81.4589-33.2991 87.6395-75.8424l85.7216-559.313c0.017407-0.115707 0.034815-0.231414 0.051198-0.347121 1.18267-8.27562 10.2109-16.0997 18.5777-16.0997l418.887 0c19.2791 0 34.9077-15.6287 34.9077-34.9077C837.693 120.394 822.064 104.76499999999998 802.785 104.76499999999998ZM429.432 244.64300000000003c-18.3319 0-33.7107 14.2975-34.8135 32.8373-1.14376 19.2442 13.5295 35.773 32.7738 36.9167l326.142 19.3856c0.034815 0.002048 0.069629 0.004096 0.105468 0.006144 23.6288 1.33319 53.0215 22.6223 62.7051 45.1104l64.798 240.446c0.32869 1.22056 0.723938 2.42166 1.18267 3.59921 2.68584 6.88714 2.56399 11.9066 1.2523 13.8265-1.18779 1.73663-5.40035 3.48965-12.138 3.48965l-487.793 0c-19.2791 0-34.9077 15.6287-34.9077 34.9067s15.6287 34.9067 34.9077 34.9067l487.793 0c29.6169 0 55.05-12.3612 69.7786-33.9135 14.5453-21.286 17.0202-49.1141 6.88816-76.6381l-64.9148-240.877c-0.32869-1.22056-0.723938-2.42268-1.18267-3.60023-9.14189-23.4425-26.8492-45.6398-49.8616-62.5064-23.1005-16.9311-49.5687-27.0345-74.5349-28.4527l-326.077-19.3815C430.831 244.664 430.129 244.64300000000003 429.432 244.64300000000003Z"  horiz-adv-x="1024" />

    
    <glyph glyph-name="address" unicode="&#58888;" d="M512.708 802.7974c-179.946 0-325.804-145.858-325.804-325.805 0-255.978 325.804-511.967 325.804-511.967s325.806 265.307 325.806 511.967C838.512 656.94 692.655 802.7974 512.708 802.7974ZM512.708 337.374c-77.1101 0-139.63 62.5085-139.63 139.62 0 77.1101 62.5208 139.63 139.63 139.63 77.1111 0 139.631-62.5197 139.631-139.63C652.338 399.883 589.818 337.374 512.708 337.374Z"  horiz-adv-x="1024" />

    
    <glyph glyph-name="payWait" unicode="&#58889;" d="M329.477 523.492c-5.95533 0-11.9107 2.27114-16.455 6.81546-9.08762 9.08762-9.08864 23.8234 0 32.911L592.031 842.2402c9.08762 9.08864 23.8234 9.08864 32.911 0.001024l229.809-229.786c4.36615-4.36411 6.81751-10.2846 6.81751-16.457 0-6.17241-2.4534-12.0929-6.81853-16.456l-49.2482-49.2359c-9.08762-9.08659-23.8234-9.08659-32.911 0.003072s-9.08557 23.8244 0.004096 32.911l32.7881 32.7799L608.49 792.874 345.933 530.307C341.389 525.7629999999999 335.433 523.492 329.477 523.492ZM232.527 523.488c-3.97193 0-7.99813 1.01781-11.6793 3.15891-11.1099 6.46219-14.8771 20.7075-8.41488 31.8174L374.927 837.8157c6.4325 11.0587 20.5856 14.8504 31.6874 8.49065l135.904-77.8832c11.1509-6.39052 15.0102-20.6112 8.61967-31.7621s-20.6112-15.0112-31.7631-8.61967L403.533 794.427 252.665 535.0609999999999C248.344 527.633 240.544 523.488 232.527 523.488ZM861.796-81.56399999999996L163.644-81.56399999999996c-64.1601 0-116.359 52.1993-116.359 116.359l0 418.88c0 64.1601 52.1993 116.358 116.359 116.358l698.152 0c64.1601 0 116.359-52.1983 116.359-116.358l0-418.88C978.154-29.364000000000032 925.956-81.56399999999996 861.796-81.56399999999996ZM163.644 523.491c-38.4967 0-69.8154-31.3187-69.8154-69.8154l0-418.88c0-38.4967 31.3187-69.8154 69.8154-69.8154l698.152 0c38.4967 0 69.8154 31.3187 69.8154 69.8154l0 418.88c0 38.4967-31.3187 69.8154-69.8154 69.8154L163.644 523.491ZM791.981 151.154c-51.3279 0-93.0869 41.759-93.0869 93.0869 0 51.3289 41.759 93.0879 93.0869 93.0879s93.0869-41.759 93.0869-93.0879C885.067 192.913 843.308 151.154 791.981 151.154ZM791.981 290.78499999999996c-25.6634 0-46.5429-20.8795-46.5429-46.544 0-25.6634 20.8795-46.5429 46.5429-46.5429s46.5429 20.8795 46.5429 46.5429C838.523 269.90599999999995 817.644 290.78499999999996 791.981 290.78499999999996Z"  horiz-adv-x="1024" />

    
    <glyph glyph-name="evalute" unicode="&#58890;" d="M512.724-81.51800000000003c-62.8218 0-123.777 12.309-181.173 36.5839-55.4268 23.4425-105.2 56.9965-147.937 99.7314-42.7379 42.7348-76.295 92.5073-99.7385 147.933-24.277 57.3959-36.587 118.352-36.587 181.177 0 62.8218 12.31 123.777 36.587 181.174 23.4445 55.4258 57.0006 105.199 99.7385 147.936 42.7379 42.7379 92.5104 76.295 147.937 99.7385 57.3959 24.277 118.352 36.587 181.174 36.587 62.8218 0 123.777-12.309 181.174-36.587 55.4258-23.4435 105.198-57.0006 147.937-99.7385 42.7369-42.7369 76.295-92.5104 99.7375-147.936 24.278-57.3959 36.587-118.352 36.587-181.174 0-85.1615-23.4189-168.354-67.8249-241.324l61.9566-186.538c2.77595-8.35754 0.596967-17.566-5.63074-23.7927-6.22771-6.22566-15.4382-8.40566-23.7927-5.62664l-185.422 61.6217C683.771-57.43399999999997 599.413-81.51800000000003 512.724-81.51800000000003ZM512.724 802.7974c-230.978 0-418.892-187.914-418.892-418.891 0-230.971 187.914-418.88 418.892-418.88 81.3943 0 160.521 23.6084 228.822 68.2713 5.94509 3.88592 13.334 4.84639 20.0757 2.607l151.864-50.4688-50.7709 152.861c-2.21584 6.6721-1.29838 13.9873 2.49846 19.9037 43.4414 67.6979 66.4026 145.746 66.4026 225.706C931.616 614.883 743.702 802.7974 512.724 802.7974ZM512.724 179.03999999999996c-6.17241 0-12.0919 2.45238-16.456 6.81648L331.708 350.41700000000003c-54.4336 54.4325-54.4346 143.013-0.001024 197.459 26.3823 26.3751 61.4497 40.8989 98.7463 40.8989 29.9897 0 58.5314-9.38866 82.2719-26.7775 23.7415 17.3888 52.2832 26.7775 82.2729 26.7775 37.2966 0 72.3641-14.5238 98.7422-40.8958 54.4366-54.4499 54.4356-143.029 0.002048-197.462L529.18 185.856C524.816 181.49099999999998 518.896 179.03999999999996 512.724 179.03999999999996ZM430.452 542.232c-24.8668 0-48.2478-9.68356-65.8353-27.267-36.286-36.2942-36.287-95.3478 0.002048-131.637l148.105-148.105 148.106 148.105c36.288 36.288 36.287 95.3417-0.002048 131.641-17.5844 17.5793-40.9644 27.2629-65.8312 27.2629-24.8647 0-48.2386-9.68254-65.8148-27.2629-4.36411-4.36615-10.2846-6.81853-16.457-6.81853-6.17344 0-12.094 2.45238-16.4581 6.81853C478.69 532.55 455.317 542.232 430.452 542.232Z"  horiz-adv-x="1024" />

    
    <glyph glyph-name="receive" unicode="&#58891;" d="M117.081 81.38400000000001c-64.1601 0-116.358 52.1993-116.358 116.359L0.722914 686.439c0 64.1601 52.1983 116.358 116.358 116.358l418.892 0c64.1601 0 116.359-52.1983 116.359-116.358l0-535.239c0-12.8527-10.4198-23.2725-23.2725-23.2725s-23.2725 10.4198-23.2725 23.2725L605.787 686.439c0 38.4957-31.3187 69.8144-69.8154 69.8144L117.081 756.2529999999999c-38.4957 0-69.8144-31.3187-69.8144-69.8144L47.2669 197.74300000000005c0-38.4967 31.3187-69.8154 69.8144-69.8154 12.8527 0 23.2725-10.4198 23.2725-23.2725S129.934 81.38400000000001 117.081 81.38400000000001ZM629.06 81.38400000000001L396.343 81.38400000000001c-12.8527 0-23.2715 10.4198-23.2715 23.2725s10.4188 23.2725 23.2715 23.2725l232.717 0c12.8527 0 23.2725-10.4198 23.2725-23.2725S641.912 81.38400000000001 629.06 81.38400000000001ZM954.865 81.38400000000001L908.322 81.38400000000001c-12.8527 0-23.2725 10.4198-23.2725 23.2725s10.4198 23.2725 23.2725 23.2725l46.5429 0c12.8322 0 23.2725 10.4392 23.2725 23.2725L978.137 314.102c0 20.6604-10.8754 53.2785-23.2735 69.8031l-83.773 111.703c-10.9645 14.6139-37.5895 27.9274-55.8558 27.9274L652.332 523.5360000000001c-12.8527 0-23.2725 10.4198-23.2725 23.2725s10.4198 23.2715 23.2725 23.2715L815.234 570.0799999999999c33.1619 0 73.1812-20.0091 93.089-46.5419l83.773-111.703c18.5746-24.7572 32.5844-66.7743 32.5844-97.7316l0-162.902C1024.68 112.70399999999995 993.36 81.38400000000001 954.865 81.38400000000001ZM954.865 290.83000000000004L768.691 290.83000000000004c-25.6634 0-46.544 20.8805-46.544 46.544l0 93.0756c0 25.6634 20.8805 46.544 46.544 46.544l116.358 0c12.8527 0 23.2725-10.4198 23.2725-23.2725s-10.4198-23.2715-23.2725-23.2715L768.691 430.45l0-93.0756 186.173 0c12.8527 0 23.2725-10.4198 23.2725-23.2725S967.716 290.83000000000004 954.865 290.83000000000004ZM256.712-34.97500000000002c-64.1601 0-116.358 52.1993-116.358 116.359s52.1983 116.359 116.358 116.359 116.358-52.1993 116.358-116.359S320.872-34.97500000000002 256.712-34.97500000000002ZM256.712 151.19899999999995c-38.4967 0-69.8154-31.3187-69.8154-69.8154s31.3187-69.8154 69.8154-69.8154 69.8154 31.3187 69.8154 69.8154S295.209 151.19899999999995 256.712 151.19899999999995ZM768.691-34.97500000000002c-64.1601 0-116.359 52.1993-116.359 116.359s52.1993 116.359 116.359 116.359 116.358-52.1993 116.358-116.359S832.851-34.97500000000002 768.691-34.97500000000002ZM768.691 151.19899999999995c-38.4967 0-69.8154-31.3187-69.8154-69.8154s31.3187-69.8154 69.8154-69.8154c38.4957 0 69.8144 31.3187 69.8144 69.8154S807.186 151.19899999999995 768.691 151.19899999999995ZM396.343 407.177L279.984 407.177c-12.8527 0-23.2715 10.4198-23.2715 23.2725L256.712 616.624c0 12.8527 10.4188 23.2715 23.2715 23.2715s23.2715-10.4188 23.2715-23.2715l0-162.901 93.0869 0c12.8527 0 23.2715-10.4198 23.2715-23.2725S409.195 407.177 396.343 407.177Z"  horiz-adv-x="1025" />

    
    <glyph glyph-name="saleReturn" unicode="&#58892;" d="M606.157 360.28200000000004L489.798 360.28200000000004l0 46.5552 116.359 0c12.8527 0 23.2725 10.4188 23.2725 23.2715s-10.4198 23.2715-23.2725 23.2715L514.733 453.38l99.9024 99.9034c9.08864 9.08864 9.08864 23.8234 0 32.912-9.08762 9.08762-23.8234 9.08762-32.911 0L466.526 470.996 351.329 586.1949999999999c-9.08864 9.08762-23.8234 9.08762-32.911 0-9.08864-9.08762-9.08864-23.8234 0-32.912l99.9024-99.9034-91.424 0c-12.8527 0-23.2715-10.4188-23.2715-23.2715s10.4188-23.2715 23.2715-23.2715l116.359 0 0-46.5552L326.895 360.28099999999995c-12.8527 0-23.2715-10.4198-23.2715-23.2725s10.4188-23.2725 23.2715-23.2725l116.359 0 0-116.358c0-12.8527 10.4188-23.2725 23.2715-23.2725s23.2715 10.4198 23.2715 23.2725L489.798 313.73800000000005l116.359 0c12.8527 0 23.2725 10.4198 23.2725 23.2725S619.01 360.28200000000004 606.157 360.28200000000004ZM1018.23 493.154c-9.08762 9.08762-23.8234 9.08762-32.911 0l-56.3361-56.3361c-4.74502 41.9699-15.1535 82.9456-31.1314 122.346-23.4374 57.7932-57.8607 109.638-102.317 154.093-44.4551 44.4561-96.3011 78.8795-154.096 102.316-55.8118 22.6325-114.779 34.108-175.264 34.108-60.4851 0-119.451-11.4755-175.259-34.108-57.7921-23.4374-109.634-57.8618-154.082-102.315-44.4612-44.4561-78.8908-96.2991-102.33-154.091C11.8697 503.358 0.392176 444.393 0.392176 383.91200000000003s11.4765-119.447 34.1121-175.256c23.4394-57.7911 57.8689-109.635 102.328-154.088 44.451-44.4561 96.2919-78.8805 154.084-102.318 55.8087-22.6325 114.774-34.108 175.259-34.108 60.4841 0 119.452 11.4755 175.264 34.108 57.7952 23.4374 109.641 57.8607 154.096 102.317 9.08864 9.08762 9.08864 23.8234 0 32.911-9.08659 9.08864-23.8244 9.08967-32.911 0-79.1846-79.1836-184.465-122.792-296.45-122.792-111.984 0-217.258 43.6083-296.434 122.793C90.5495 166.66099999999994 46.9361 271.937 46.9361 383.91200000000003s43.6144 217.25 122.81 296.436c79.1724 79.1836 184.446 122.791 296.43 122.791 111.984 0 217.265-43.6083 296.45-122.791 64.8216-64.8226 105.794-147.132 118.528-236.29l-49.0967 49.0967c-9.08762 9.08762-23.8234 9.08762-32.911 0-9.08864-9.08864-9.08864-23.8234 0-32.912l93.0869-93.0869c4.54432-4.54432 10.4997-6.81546 16.455-6.81546s11.9117 2.27216 16.455 6.81546l93.0869 93.0869C1027.32 469.33 1027.32 484.065 1018.23 493.154Z"  horiz-adv-x="1026" />

    
    <glyph glyph-name="myOrder" unicode="&#58893;" d="M768.672 709.71l-93.0869 0 0-11.6362c0-38.5551-31.2491-69.8154-69.8154-69.8154L419.596 628.259c-38.5551 0-69.8154 31.2604-69.8154 69.8154l0 11.6362-93.0869 0c-38.5551 0-69.8154-31.2604-69.8154-69.8154l0-558.51c0-38.5663 31.2594-69.8154 69.8154-69.8154l511.978 0c38.5663 0 69.8154 31.2491 69.8154 69.8154L838.488 639.895C838.488 678.45 807.239 709.71 768.672 709.71ZM675.585 197.74300000000005L349.781 197.74300000000005c-12.8517 0-23.2725 10.4085-23.2725 23.2725 0 12.8404 10.4198 23.2725 23.2725 23.2725l325.805 0c12.8404 0 23.2725-10.4321 23.2725-23.2725C698.858 208.15200000000004 688.426 197.74300000000005 675.585 197.74300000000005ZM675.585 337.374L349.781 337.374c-12.8517 0-23.2725 10.4085-23.2725 23.2715 0 12.8404 10.4198 23.2612 23.2725 23.2612l325.805 0c12.8404 0 23.2725-10.4208 23.2725-23.2612C698.858 347.783 688.426 337.374 675.585 337.374ZM675.585 476.993L349.781 476.993c-12.8517 0-23.2725 10.4198-23.2725 23.2715s10.4198 23.2715 23.2725 23.2715l325.805 0c12.8404 0 23.2725-10.4198 23.2725-23.2715S688.426 476.993 675.585 476.993ZM431.232 663.167l162.902 0c19.2944 0 34.9077 15.6358 34.9077 34.9077l0 23.2725c0 19.2832-15.6133 34.9077-34.9077 34.9077L431.232 756.254c-19.2832 0-34.9077-15.6246-34.9077-34.9077l0-23.2725C396.325 678.802 411.949 663.167 431.232 663.167Z"  horiz-adv-x="1024" />

    
    <glyph glyph-name="myPurse" unicode="&#58894;" d="M895.984 465.446L686.539 465.446c-19.2954 0-34.9077-15.6246-34.9077-34.9077l0-93.0756c0-19.2944 15.6123-34.9077 34.9077-34.9077L895.984 302.554c19.2954 0 34.9077 15.6133 34.9077 34.9077l0 93.0756C930.892 449.821 915.279 465.446 895.984 465.446ZM733.082 349.097c-19.2944 0-34.9077 15.6133-34.9077 34.8965 0 19.2842 15.6133 34.9077 34.9077 34.9077 19.2954 0 34.9077-15.6246 34.9077-34.9077C767.989 364.711 752.377 349.097 733.082 349.097ZM605.087 325.827L605.087 442.174c0 38.5551 31.2491 69.8154 69.8154 69.8154l209.446 0L884.349 628.348c0 38.5551-31.2491 69.8154-69.8154 69.8154L162.925 698.163c-38.5551 0-69.8154-31.2604-69.8154-69.8154l0-488.696c0-38.5663 31.2604-69.8154 69.8154-69.8154l651.609 0c38.5663 0 69.8154 31.2491 69.8154 69.8154L884.35 256.01199999999994 674.902 256.01199999999994C636.336 256.01199999999994 605.087 287.26 605.087 325.827ZM200.571 186.423l-14.1357 0L186.435 582.054l14.1357 0L200.571 186.423Z"  horiz-adv-x="1024" />

    
    <glyph glyph-name="myCollect" unicode="&#58895;" d="M928.869 480.263c-4.84127 14.704-18.2725 25.0214-35.9982 27.567l-237.172 34.1121L549.658 754.593c-7.90904 15.8857-21.9987 25.3849-37.6345 25.3849-15.6696 0-29.749-9.49925-37.6458-25.3624L368.302 541.942l-237.172-34.1121c-17.7267-2.54556-31.1805-12.8629-36.0095-27.5895-4.84127-14.7265-0.056318-30.9081 12.738-43.2478l171.641-165.527-40.521-233.808c-2.41961-13.9545 0.670692-26.8164 8.69339-36.2256 7.26088-8.49987 18.0554-13.4087 29.6241-13.4087 7.49946 0 15.0901 1.99979 22.5783 5.86318l212.151 110.404 212.127-110.404c18.9995-9.90883 40.2262-6.50008 52.1798 7.54554 8.04523 9.40812 11.114 22.2711 8.70466 36.2706l-30.0664 173.448c-62.2699 7.36328-148.584 34.7715-219.514 121.586 73.6327-49.9752 148.767-63.384 209.4-63.088l-0.318451 1.81752 47.0887 45.4074c-27.7953 9.68151-56.93 28.3165-64.4755 64.4868 12.1585-30.1914 52.9068-40.2139 86.5879-43.169l102.427 98.8026C928.96 449.378 933.711 465.536 928.869 480.263Z"  horiz-adv-x="1024" />

    
    <glyph glyph-name="myTrack" unicode="&#58896;" d="M360.87 604.235c58.6 37.9304 295.009-11.9537 369.28-119.563 30.8856-44.7479 25.8631-144.074-92.0414-257.797C476.9 71.29100000000005 496.047 5.793999999999983 415.549-25.250999999999976c-90.6888-34.9528-215.502 31.499-217.763 92.1336-5.03377 135.403 87.9845 101.45 134.711 222.9C386.574 430.356 240.591 526.352 360.87 604.235ZM389.823 802.908c33.3503 0 60.3838-40.521 60.3838-90.4727 0-49.9763-27.0325-90.4738-60.3838-90.4738-33.34 0-60.3725 40.4985-60.3725 90.4738C329.451 762.387 356.484 802.908 389.823 802.908ZM543.204 776.159c26.3618-4.34055 41.4518-41.1119 33.7261-82.1101-7.77286-40.9982-35.4074-70.7237-61.7702-66.3831-26.3628 4.34055-41.4529 41.0893-33.7035 82.0876C489.206 750.774 516.841 780.477 543.204 776.159ZM662.244 712.798c26.7949-8.54492 37.9755-40.8395 24.9764-72.1562-13.0217-31.2942-45.2927-49.7479-72.0651-41.202-26.8164 8.54492-37.998 40.861-24.9989 72.1562C603.178 702.89 635.427 721.344 662.244 712.798ZM771.489 619.826c18.8848-10.6133 18.7046-36.7938-0.363505-58.4526-19.0671-21.6577-49.8155-30.5887-68.7014-19.9528-18.8633 10.6358-18.7046 36.7938 0.386032 58.4516C721.877 621.53 752.626 630.46 771.489 619.826ZM818.964 524.784c13.2725-14.7276 8.31863-39.5677-11.0905-55.4759-19.3856-15.9082-45.861-16.8625-59.1335-2.11242-13.2725 14.7265-8.3176 39.5667 11.0905 55.4749C779.216 538.579 805.693 539.534 818.964 524.784Z"  horiz-adv-x="1024" />

    
    <glyph glyph-name="safe" unicode="&#58897;" d="M859.554 672.533c-131.266 0.273397-251.875 45.2712-347.712 120.449-95.8823-75.0192-216.286-120.177-347.417-120.449-87.405-286.238 63.0194-593.929 347.531-697.515C796.534 78.60400000000004 946.982 386.295 859.554 672.533ZM201.448 381.818l310.552 0L512 735.02c92.5227-64.4192 199.064-101.307 311.691-107.939 19.7624-82.9876 18.3319-166.812-1.17857-245.262L512 381.818 512 24.874000000000023c-0.015359-0.006144-0.029695-0.012287-0.045054-0.018431C352.376 88.86000000000001 240.559 224.53499999999997 201.448 381.818Z"  horiz-adv-x="1024" />

    
    <glyph glyph-name="personal" unicode="&#58898;" d="M919.256-75.476c-19.278 0-34.9077 15.6287-34.9077 34.9077 0 205.312-167.033 372.345-372.345 372.345-205.311 0-372.344-167.033-372.344-372.345 0-19.2791-15.6287-34.9077-34.9067-34.9077s-34.9067 15.6287-34.9067 34.9077c0 59.6762 11.6946 117.585 34.7613 172.12 22.2711 52.656 54.1479 99.9392 94.7437 140.534 40.5958 40.5958 87.878 72.4726 140.535 94.7437 54.5339 23.0657 112.443 34.7613 172.119 34.7613 59.6762 0 117.585-11.6946 172.12-34.7613 52.656-22.2711 99.9392-54.1479 140.534-94.7437 40.5958-40.5958 72.4726-87.878 94.7437-140.534 23.0657-54.5339 34.7613-112.444 34.7613-172.12C954.164-59.84699999999998 938.536-75.476 919.256-75.476ZM512.255 331.52599999999995c-68.3809 0-132.666 26.626-181.012 74.9731-48.3472 48.3472-74.9741 112.632-74.9741 181.013 0 68.3717 26.626 132.654 74.9731 181.004 48.3502 48.3533 112.635 74.9833 181.013 74.9833 68.3788 0 132.665-26.629 181.014-74.9833 48.3472-48.3502 74.9731-112.632 74.9731-181.004 0-68.3809-26.627-132.666-74.9741-181.013S580.636 331.52599999999995 512.255 331.52599999999995ZM512.255 773.684c-102.655 0-186.172-83.516-186.172-186.172 0-102.655 83.517-186.172 186.172-186.172 102.656 0 186.172 83.517 186.172 186.172C698.427 690.168 614.911 773.684 512.255 773.684Z"  horiz-adv-x="1024" />

    
    <glyph glyph-name="return" unicode="&#58900;" d="M333.436 383.99800000000004l363.098 362.901c18.2264 18.2264 18.2264 47.7707 0 65.9981s-47.7707 18.2264-65.9981 0L234.423 416.999c-18.2264-18.2264-18.2264-47.7707 0-65.9981l396.113-395.943c18.2275-18.1814 47.7717-18.1814 65.9981 0 18.2264 18.2275 18.2264 47.7717 0 65.9981L333.436 383.99800000000004Z"  horiz-adv-x="1024" />

    
    <glyph glyph-name="more" unicode="&#58901;" d="M209.489 500.358c-64.2707 0-116.359-52.0887-116.359-116.358 0-64.2697 52.0887-116.358 116.359-116.358 64.2697 0 116.358 52.0887 116.358 116.358C325.848 448.27 273.759 500.358 209.489 500.358ZM209.489 325.821c-32.1348 0-58.1792 26.0443-58.1792 58.1792s26.0443 58.1792 58.1792 58.1792c32.1348 0 58.1792-26.0443 58.1792-58.1792S241.623 325.821 209.489 325.821ZM512.021 500.358c-64.2707 0-116.359-52.0887-116.359-116.358 0-64.2697 52.0887-116.358 116.359-116.358 64.2697 0 116.358 52.0887 116.358 116.358C628.38 448.27 576.291 500.358 512.021 500.358ZM512.021 325.821c-32.1348 0-58.1792 26.0443-58.1792 58.1792s26.0443 58.1792 58.1792 58.1792 58.1792-26.0443 58.1792-58.1792S544.157 325.821 512.021 325.821ZM814.555 500.358c-64.2707 0-116.359-52.0887-116.359-116.358 0-64.2697 52.0887-116.358 116.359-116.358 64.2697 0 116.358 52.0887 116.358 116.358C930.913 448.27 878.823 500.358 814.555 500.358ZM814.555 325.821c-32.1359 0-58.1792 26.0443-58.1792 58.1792s26.0443 58.1792 58.1792 58.1792c32.1348 0 58.1792-26.0443 58.1792-58.1792S846.69 325.821 814.555 325.821Z"  horiz-adv-x="1024" />

    
    <glyph glyph-name="close" unicode="&#58902;" d="M570.837 383.977L780.919 587.809c13.9084 13.5449 13.9084 35.4074 0 48.9523-13.9084 13.4998-36.4989 13.4998-50.4074 0L520.417 432.897 293.531 653.033c-13.9084 13.5449-36.4989 13.5449-50.4074 0-13.9084-13.4998-13.9084-35.4074 0-48.9073l226.889-220.139L243.123 163.82799999999997c-13.9084-13.4998-13.9084-35.4074 0-48.9073 13.9084-13.4998 36.4989-13.4998 50.4074 0l226.899 220.15L730.512 131.23699999999997c13.9084-13.4998 36.4989-13.4998 50.4074 0s13.9084 35.4074 0 48.9073L570.837 383.977Z"  horiz-adv-x="1024" />

    
    <glyph glyph-name="collectAfter" unicode="&#58913;" d="M928.881 480.24c-4.84127 14.704-18.2828 25.0224-35.987 27.567L655.733 541.9200000000001 549.658 754.569c-7.90904 15.8857-21.9762 25.3849-37.6345 25.3849s-29.7378-9.49925-37.6345-25.3624L368.313 541.9200000000001l-237.172-34.1121c-17.7267-2.54453-31.1805-12.8629-36.0095-27.5895-4.84127-14.7265-0.057342-30.9081 12.737-43.2478l171.641-165.55-40.521-233.762c-2.41961-13.9545 0.670692-26.8174 8.69339-36.2266 7.26088-8.54492 18.0554-13.4087 29.6241-13.4087 7.49946 0 15.0901 1.95473 22.5783 5.8642l212.139 110.359 212.128-110.359c19.0098-9.90883 40.2251-6.50008 52.1911 7.54452 8.04421 9.40812 11.113 22.2721 8.70363 36.2266l-40.4985 233.762 171.63 165.55C928.972 449.355 933.722 465.513 928.881 480.24Z"  horiz-adv-x="1024" />

    
    <glyph glyph-name="list" unicode="&#58916;" d="M325.826 430.544L162.925 430.544c-38.4967 0-69.8154 31.3187-69.8154 69.8154L93.1094 663.261c0 38.4967 31.3187 69.8154 69.8154 69.8154l162.902 0c38.4967 0 69.8154-31.3187 69.8154-69.8154l0-162.902C395.642 461.863 364.323 430.544 325.826 430.544ZM162.925 686.533c-12.8322 0-23.2725-10.4403-23.2725-23.2725l0-162.902c0-12.8322 10.4403-23.2725 23.2725-23.2725l162.902 0c12.8322 0 23.2725 10.4403 23.2725 23.2725L349.1 663.261c0 12.8322-10.4403 23.2725-23.2725 23.2725L162.925 686.533ZM325.826 34.89999999999998L162.925 34.89999999999998c-38.4967 0-69.8154 31.3187-69.8154 69.8154L93.1094 267.619c0 38.4967 31.3187 69.8154 69.8154 69.8154l162.902 0c38.4967 0 69.8154-31.3187 69.8154-69.8154l0-162.903C395.642 66.21900000000005 364.323 34.89999999999998 325.826 34.89999999999998ZM162.925 290.89c-12.8322 0-23.2725-10.4392-23.2725-23.2715l0-162.903c0-12.8312 10.4403-23.2715 23.2725-23.2715l162.902 0c12.8322 0 23.2725 10.4392 23.2725 23.2715L349.1 267.619c0 12.8312-10.4403 23.2715-23.2725 23.2715L162.925 290.89099999999996ZM907.643 616.717l-418.891 0c-12.8527 0-23.2715 10.4188-23.2715 23.2715s10.4188 23.2715 23.2715 23.2715l418.891 0c12.8527 0 23.2725-10.4188 23.2725-23.2715S920.495 616.717 907.643 616.717ZM907.643 477.087l-418.891 0c-12.8527 0-23.2715 10.4188-23.2715 23.2715s10.4188 23.2715 23.2715 23.2715l418.891 0c12.8527 0 23.2725-10.4188 23.2725-23.2715S920.495 477.087 907.643 477.087ZM907.643 244.346l-418.891 0c-12.8527 0-23.2715 10.4198-23.2715 23.2725s10.4188 23.2725 23.2715 23.2725l418.891 0c12.8527 0 23.2725-10.4198 23.2725-23.2725S920.495 244.346 907.643 244.346ZM907.643 104.71600000000001l-418.891 0c-12.8527 0-23.2715 10.4198-23.2715 23.2725s10.4188 23.2725 23.2715 23.2725l418.891 0c12.8527 0 23.2725-10.4198 23.2725-23.2725S920.495 104.71600000000001 907.643 104.71600000000001Z"  horiz-adv-x="1024" />

    
    <glyph glyph-name="proList" unicode="&#58917;" d="M418.891 407.271L209.444 407.271c-38.4967 0-69.8154 31.3187-69.8154 69.8154L139.629 686.533c0 38.4967 31.3187 69.8154 69.8154 69.8154l209.446 0c38.4967 0 69.8154-31.3187 69.8154-69.8154l0-209.445C488.706 438.59 457.387 407.271 418.891 407.271ZM209.444 709.8050000000001c-12.8322 0-23.2725-10.4403-23.2725-23.2725l0-209.445c0-12.8322 10.4403-23.2725 23.2725-23.2725l209.446 0c12.8322 0 23.2725 10.4403 23.2725 23.2725L442.163 686.533c0 12.8322-10.4403 23.2725-23.2725 23.2725L209.444 709.806ZM814.557 314.18399999999997L605.109 314.18399999999997c-38.4967 0-69.8154 31.3198-69.8154 69.8154L535.294 686.533c0 38.4967 31.3187 69.8154 69.8154 69.8154l209.447 0c38.4967 0 69.8154-31.3187 69.8154-69.8154l0-302.533C884.371 345.50300000000004 853.052 314.18399999999997 814.557 314.18399999999997ZM605.109 709.8050000000001c-12.8312 0-23.2715-10.4403-23.2715-23.2725l0-302.533c0-12.8322 10.4392-23.2715 23.2715-23.2715l209.447 0c12.8312 0 23.2715 10.4392 23.2715 23.2715L837.828 686.533c0 12.8322-10.4392 23.2725-23.2715 23.2725L605.109 709.806ZM418.891 11.629000000000019L209.444 11.629000000000019c-38.4967 0-69.8154 31.3187-69.8154 69.8154L139.629 290.89099999999996c0 38.4967 31.3187 69.8154 69.8154 69.8154l209.446 0c38.4967 0 69.8154-31.3187 69.8154-69.8154l0-209.447C488.706 42.94799999999998 457.387 11.629000000000019 418.891 11.629000000000019ZM209.444 314.16200000000003c-12.8322 0-23.2725-10.4392-23.2725-23.2715l0-209.447c0-12.8312 10.4403-23.2715 23.2725-23.2715l209.446 0c12.8322 0 23.2725 10.4392 23.2725 23.2715L442.163 290.89099999999996c0 12.8312-10.4403 23.2715-23.2725 23.2715L209.444 314.16200000000003ZM814.533 11.629000000000019L605.087 11.629000000000019c-38.4967 0-69.8154 31.3187-69.8154 69.8154L535.271 197.803c0 38.4967 31.3187 69.8154 69.8154 69.8154l209.446 0c38.4967 0 69.8154-31.3187 69.8154-69.8154l0-116.359C884.349 42.94799999999998 853.03 11.629000000000019 814.533 11.629000000000019ZM605.087 221.07399999999995c-12.8312 0-23.2715-10.4392-23.2715-23.2715l0-116.359c0-12.8312 10.4392-23.2715 23.2715-23.2715l209.446 0c12.8312 0 23.2715 10.4392 23.2715 23.2715L837.805 197.803c0 12.8312-10.4392 23.2715-23.2715 23.2715L605.087 221.07399999999995Z"  horiz-adv-x="1024" />

    
    <glyph glyph-name="tel" unicode="&#58919;" d="M721.446 849.4407L302.577 849.4407c-51.3279 0-93.0869-41.759-93.0869-93.0869l0-744.708c0-51.3279 41.759-93.0869 93.0869-93.0869l418.869 0c51.3279 0 93.0869 41.759 93.0869 93.0869L814.533 756.354C814.533 807.6827 772.774 849.4407 721.446 849.4407ZM302.577 802.8977l418.869 0c25.6634 0 46.5429-20.8795 46.5429-46.544l0-605.076L256.034 151.27800000000002 256.034 756.354C256.034 782.018 276.914 802.8977 302.577 802.8977ZM721.446-34.89700000000005L302.577-34.89700000000005c-25.6634 0-46.5429 20.8795-46.5429 46.5429l0 93.0869L767.989 104.73299999999995l0-93.0869C767.989-14.017000000000052 747.111-34.89700000000005 721.446-34.89700000000005ZM564.385 58.190000000000055L459.661 58.190000000000055c-12.8527 0-23.2715-10.4198-23.2715-23.2725s10.4188-23.2725 23.2715-23.2725l104.723 0c12.8527 0 23.2725 10.4198 23.2725 23.2725S577.237 58.190000000000055 564.385 58.190000000000055Z"  horiz-adv-x="1024" />

    
    <glyph glyph-name="code" unicode="&#58920;" d="M512-77.47500000000002l-7.95922 2.89677c-152.172 55.3879-275.544 165.759-347.388 310.784-71.5357 144.4-85.0335 308.713-38.0072 462.67l5.02148 16.4396 17.1902 0.033791c130.215 0.253941 253.542 43.0093 356.648 123.646l14.3569 11.2277 14.3415-11.2492c102.786-80.6213 226.213-123.369 356.939-123.624l17.1902-0.033791 5.02046-16.4396c47.0273-153.957 33.5284-318.269-38.0062-462.67C795.503 91.18100000000004 672.132-19.190000000000054 519.96-74.57799999999997L512-77.47500000000002ZM158.461 669.082C79.3065 380.75 231.909 78.63900000000001 512-27.879999999999995c280.092 106.519 432.694 408.628 353.539 696.959-65.1022 1.91173-128.932 13.7804-189.993 35.348-58.6072 20.7013-113.601 49.9312-163.723 86.9974-50.1933-37.0294-105.14-66.2357-163.58-86.9237C287.2 682.893 223.439 671.001 158.461 669.082ZM469.433 215.28099999999995c-5.95636 0-11.9107 2.27216-16.456 6.81648L321.346 353.72799999999995c-9.08762 9.08762-9.08762 23.8234 0 32.911 9.08864 9.08762 23.8234 9.08762 32.912 0L469.434 271.46299999999996l246.851 246.829c9.08864 9.08864 23.8234 9.08762 32.912-0.001024 9.08762-9.08864 9.08762-23.8234-0.001024-32.911L485.888 222.096C481.344 217.553 475.387 215.28099999999995 469.433 215.28099999999995Z"  horiz-adv-x="1024" />

    
    <glyph glyph-name="password" unicode="&#58921;" d="M791.262 523.63L325.827 523.63l0 93.0879c0 102.657 83.517 186.174 186.174 186.174 102.657 0 186.174-83.517 186.174-186.174 0-12.8527 10.4198-23.2715 23.2725-23.2715s23.2725 10.4188 23.2725 23.2715c0 62.1624-24.2074 120.604-68.1597 164.557-43.9544 43.9534-102.395 68.1597-164.558 68.1597s-120.604-24.2063-164.558-68.1597-68.1597-102.395-68.1597-164.557l0-93.0879-46.544 0c-76.9923 0-139.631-62.6375-139.631-139.63l0-325.805c0-76.9913 62.6385-139.63 139.631-139.63l558.522 0c76.9923 0 139.631 62.6385 139.631 139.63L930.894 384C930.893 460.991 868.254 523.63 791.262 523.63ZM884.349 58.19399999999996c0-51.3279-41.758-93.0859-93.0869-93.0859L232.739-34.89200000000005c-51.3279 0-93.0869 41.758-93.0869 93.0859L139.652 384c0 51.3279 41.759 93.0869 93.0869 93.0869l558.522 0c51.3289 0 93.0869-41.759 93.0869-93.0869L884.349 58.19399999999996ZM512.001 384c-64.1601 0-116.359-52.1983-116.359-116.358 0-56.2337 40.0982-103.275 93.2026-114.042-0.075773-0.761824-0.115707-1.53491-0.115707-2.31721l0-69.8154c0-12.8527 10.4188-23.2725 23.2715-23.2725 12.8527 0 23.2715 10.4198 23.2715 23.2725l0 69.8154c0 0.782303-0.039934 1.55539-0.114683 2.31824 53.1034 10.7659 93.2016 57.8075 93.2016 114.041C628.359 331.80100000000004 576.16 384 512.001 384ZM512.001 197.82600000000002c-38.4967 0-69.8154 31.3187-69.8154 69.8154s31.3187 69.8154 69.8154 69.8154c38.4957 0 69.8144-31.3187 69.8144-69.8154S550.497 197.82600000000002 512.001 197.82600000000002Z"  horiz-adv-x="1024" />

    
    <glyph glyph-name="username" unicode="&#58922;" d="M928.383 104.47799999999995c-16.9659 46.6894-41.5798 89.9485-73.1556 128.575-51.76 63.3205-120.316 111.083-196.763 137.863 12.5599 8.71695 24.4378 18.6084 35.477 29.6487 48.3523 48.3512 74.9813 112.635 74.9813 181.013 0 68.3778-26.629 132.663-74.9813 181.013-48.3512 48.3492-112.634 74.9762-181.008 74.9762-68.3778 0-132.663-26.627-181.012-74.9762s-74.9762-112.634-74.9762-181.013c0-68.3778 26.627-132.663 74.9762-181.012 10.9973-10.9973 22.8271-20.858 35.3347-29.5494-76.4363-26.7017-144.996-74.372-196.811-137.614-31.6679-38.6534-56.3565-81.9565-73.3768-128.705-17.6162-48.385-26.5481-99.2583-26.5481-151.206 0-12.8527 10.4198-23.2725 23.2725-23.2725s23.2715 10.4198 23.2715 23.2725c0 184.928 130.698 347.139 311.032 386.437 26.9024-9.42143 55.4903-14.3405 84.8379-14.3405 29.2954 0 57.8341 4.90271 84.6966 14.2934 180.096-39.4152 310.673-201.693 310.673-386.391 0-12.8527 10.4198-23.2725 23.2725-23.2725s23.2725 10.4198 23.2725 23.2725C954.847 5.357999999999947 945.943 56.158000000000015 928.383 104.47799999999995ZM303.488 581.577c0 115.489 93.9573 209.446 209.445 209.446 115.488 0 209.445-93.9573 209.445-209.446 0-115.489-93.9573-209.445-209.445-209.445C397.445 372.131 303.488 466.088 303.488 581.577Z"  horiz-adv-x="1024" />

    
    <glyph glyph-name="arrow" unicode="&#58923;" d="M386.64 699.595L687.537 408.277c13.8408-13.4087 13.8408-35.135 0-48.5438s-36.2931-13.4087-50.1565 0L336.484 651.0509999999999c-13.8408 13.4087-13.8408 35.135 0 48.5438S372.778 713.004 386.64 699.595ZM336.484 116.92600000000004l300.896 291.352c13.8634 13.4087 36.3167 13.4087 50.1565 0 13.8408-13.4087 13.8408-35.135 0-48.5438L386.64 68.38300000000004c-13.8634-13.4087-36.3167-13.4087-50.1565 0S322.643 103.56299999999999 336.484 116.92600000000004Z"  horiz-adv-x="1024" />

    
    <glyph glyph-name="bianji" unicode="&#58924;" d="M837.665-11.482999999999947L139.516-11.482999999999947c-12.8527 0-23.2725 10.4198-23.2725 23.2725L116.244 709.938c0 12.8527 10.4198 23.2725 23.2725 23.2725l442.157 0c12.8527 0 23.2725-10.4198 23.2725-23.2725s-10.4198-23.2725-23.2725-23.2725L162.789 686.665l0-651.605 651.605 0L814.394 453.957c0 12.8527 10.4198 23.2725 23.2725 23.2725s23.2725-10.4188 23.2725-23.2725l0-442.168C860.938-1.0639999999999645 850.518-11.482999999999947 837.665-11.482999999999947ZM395.758 244.19100000000003c-5.95533 0-11.9117 2.27216-16.456 6.81546-9.08762 9.08864-9.08762 23.8244 0 32.9131l488.746 488.746c9.08967 9.08864 23.8244 9.08864 32.912 0 9.08864-9.08762 9.08864-23.8234 0.001024-32.912L412.214 251.00599999999997C407.67 246.46299999999996 401.715 244.19100000000003 395.758 244.19100000000003Z"  horiz-adv-x="1024" />

    
    <glyph glyph-name="shanchu" unicode="&#58925;" d="M907.618072 579.257647 744.713682 579.257647 744.713682 695.617048c0 12.852708-10.419786 23.272495-23.272495 23.272495L302.556765 718.889543c-12.852708 0-23.272495-10.418762-23.272495-23.272495l0-116.360425L116.380904 579.256623c-12.852708 0-23.272495-10.419786-23.272495-23.272495s10.418762-23.272495 23.272495-23.272495l791.237168 0c12.852708 0 23.272495 10.419786 23.272495 23.272495S920.469756 579.257647 907.618072 579.257647zM325.829259 672.345577l372.340458 0 0-93.08793L325.829259 579.257647 325.829259 672.345577zM791.257647 439.637015c-12.852708 0-23.272495-10.418762-23.272495-23.272495l0-488.712146L256.012799-72.347625 256.012799 416.364521c0 12.852708-10.418762 23.272495-23.272495 23.272495s-23.272495-10.418762-23.272495-23.272495l0-511.983617c0-12.852708 10.418762-23.272495 23.272495-23.272495l558.516318 0c12.852708 0 23.272495 10.419786 23.272495 23.272495L814.529118 416.364521C814.529118 429.217229 804.110355 439.637015 791.257647 439.637015zM442.189684 44.012799l0 372.351721c0 12.852708-10.418762 23.272495-23.272495 23.272495s-23.272495-10.418762-23.272495-23.272495l0-372.351721c0-12.852708 10.418762-23.272495 23.272495-23.272495S442.189684 31.160091 442.189684 44.012799zM628.353257 44.012799l0 372.351721c0 12.852708-10.419786 23.272495-23.272495 23.272495s-23.272495-10.418762-23.272495-23.272495l0-372.351721c0-12.852708 10.419786-23.272495 23.272495-23.272495S628.353257 31.160091 628.353257 44.012799z"  horiz-adv-x="1024" />

    
    <glyph glyph-name="shouhuoren" unicode="&#58928;" d="M833.637179 435.887285c-17.582366 41.57163-42.748157 78.899982-74.79801 110.95086-32.050878 32.049854-69.380254 57.215645-110.95086 74.79801-43.050224 18.208003-88.76888 27.44-135.887285 27.44-47.114309 0-92.831941-9.23302-135.883189-27.44-41.570606-17.582366-78.899982-42.748157-110.95086-74.79801-32.051902-32.050878-57.217693-69.37923-74.801082-110.949836-18.209027-43.051248-27.442047-88.770928-27.442047-135.887285 0-47.117381 9.23302-92.837061 27.442047-135.887285 17.582366-41.570606 42.749181-78.899982 74.801082-110.949836 32.050878-32.050878 69.380254-57.215645 110.95086-74.79801 43.050224-18.208003 88.767856-27.441023 135.883189-27.441023 47.117381 0 92.837061 9.23302 135.887285 27.441023 41.57163 17.581342 78.901006 42.747133 110.95086 74.79801 32.049854 32.050878 57.215645 69.380254 74.79801 110.95086 18.206979 43.050224 27.44 88.76888 27.44 135.887285C861.076155 347.116357 851.844159 392.836037 833.637179 435.887285zM512.001024-2.533214c-70.414451 0-135.287246 24.181768-186.7503 64.675172 0.37272 1.653691 0.576488 3.372914 0.576488 5.140264 0 79.767274 51.62996 150.898494 126.680887 176.229142 18.058506-8.540825 38.226362-13.327824 59.492925-13.327824 21.268611 0 41.436468 4.788023 59.497021 13.329872 75.047856-25.33372 126.676792-96.465964 126.676792-176.23119 0-1.76735 0.202743-3.484526 0.576488-5.13924C647.287246 21.648555 582.415475-2.533214 512.001024-2.533214zM561.085426 290.75674c-2.659216-0.917465-5.135144-2.310047-7.300813-4.107092-12.572144-6.34239-26.76726-9.921119-41.783589-9.921119-15.007114 0-29.194038 3.574634-41.761062 9.909856-2.173861 1.80626-4.660028 3.203961-7.331532 4.122451-26.392492 16.448845-43.995336 45.732991-43.995336 79.0546 0 51.327892 41.759014 93.086906 93.08793 93.086906s93.086906-41.759014 93.086906-93.086906C605.086906 336.489731 587.48099 307.204561 561.085426 290.75674zM741.914184 103.593785c-5.957382 38.242746-21.349503 74.142678-45.398157 105.346743-21.689457 28.14141-49.80322 51.032993-81.46909 66.751756 22.710342 24.842221 36.583935 57.891457 36.583935 94.122127 0 76.99235-62.638521 139.629848-139.630872 139.629848-76.99235 0-139.630872-62.637497-139.630872-139.629848 0-36.231694 13.873593-69.28093 36.584959-94.123151-31.668942-15.719788-59.783729-38.610346-81.473186-66.750732-24.04763-31.203041-39.438728-67.102974-45.394061-105.347767-45.24866 52.890451-72.61903 121.507857-72.61903 196.406215 0 166.817954 135.71526 302.533214 302.533214 302.533214 166.81693 0 302.53219-135.71526 302.53219-302.533214C814.53219 225.101642 787.161819 156.484236 741.914184 103.593785z"  horiz-adv-x="1024" />

    
    <glyph glyph-name="zhiding" unicode="&#58929;" d="M885.508793 291.061879 537.140192 638.930789c-13.759934 13.726144-36.05455 13.703616-49.804244-0.045054L138.537285 290.585739c-13.772222-13.759934-13.772222-35.986969-0.045054-49.713112 13.749695-13.726144 36.043286-13.726144 49.815508 0l289.257611 288.86134 0-544.075453c0-19.270871 15.635823-34.906694 34.907718-34.906694 19.283158 0 34.917957 15.635823 34.917957 34.906694l0 543.516372 288.280756-287.847622c13.748671-13.726144 36.043286-13.726144 49.791957 0C899.234936 255.098462 899.234936 277.324472 885.508793 291.061879z"  horiz-adv-x="1024" />

    
    <glyph glyph-name="sousuo" unicode="&#58931;" d="M830.486464 15.875485 672.790943 173.57203c44.959904 52.799318 72.109099 121.232412 72.109099 196.016087 0 167.084182-135.448007 302.533214-302.53219 302.533214s-302.533214-135.449031-302.533214-302.533214 135.449031-302.53219 302.533214-302.53219c74.782651 0 143.215745 27.149196 196.017111 72.109099L796.101988-18.531518c9.499249-9.499249 24.885227-9.499249 34.384476 0S839.986737 6.376236 830.486464 15.875485zM442.366829 113.598869c-141.380814 0-255.989248 114.631985-255.989248 255.989248 0 141.403341 114.608434 255.989248 255.989248 255.989248 141.37979 0 255.989248-114.585907 255.989248-255.989248C698.356077 228.230854 583.747643 113.598869 442.366829 113.598869z"  horiz-adv-x="1024" />

    
    <glyph glyph-name="bad" unicode="&#58932;" d="M512.024 15.701999999999998c-49.7049 0-97.9333 9.73988-143.346 28.9503-43.853 18.549-83.2334 45.1012-117.048 78.9164-33.8131 33.8141-60.3633 73.1955-78.9112 117.049-19.2084 45.4115-28.9473 93.6357-28.9473 143.336 0 49.71 9.73886 97.9425 28.9473 143.358 18.548 43.8561 45.0981 83.2395 78.9112 117.054 33.8131 33.8141 73.1935 60.3653 117.048 78.9143 45.4125 19.2084 93.6409 28.9483 143.346 28.9483s97.9333-9.73988 143.345-28.9483c43.854-18.549 83.2344-45.1002 117.049-78.9143 33.8131-33.8152 60.3633-73.1976 78.9112-117.054 19.2084-45.4156 28.9473-93.6491 28.9473-143.358 0-49.6998-9.73886-97.9251-28.9473-143.336-18.549-43.852-45.0992-83.2334-78.9112-117.049-33.8141-33.8152-73.1945-60.3674-117.048-78.9164C609.956 25.442000000000007 561.727 15.701999999999998 512.024 15.701999999999998ZM512.024 713.8779999999999c-181.908 0-329.901-148.004-329.901-329.924 0-181.907 147.993-329.902 329.901-329.902 181.908 0 329.902 147.994 329.902 329.902C841.924 565.874 693.932 713.8779999999999 512.024 713.8779999999999ZM395.664 200.59799999999996c-5.23447 0-10.4689 1.99672-14.4634 5.99117-7.98789 7.98789-7.98789 20.9379 0 28.9268 24.4582 24.4593 62.7542 52.5341 142.458 52.5341 74.3249 0 118.494-28.5684 142.458-52.5351 7.98789-7.98789 7.98789-20.9379-0.001024-28.9258-7.98687-7.98891-20.9389-7.98789-28.9258 0.001024-18.4978 18.4988-53.212 40.5518-113.531 40.5518-64.3086 0-93.4791-20.4996-113.531-40.5528C406.134 202.59500000000003 400.9 200.59799999999996 395.664 200.59799999999996ZM306.289 447.265c-9.18489 0-17.5353 6.22975-19.8392 15.5467-2.71246 10.9656 3.97807 22.055 14.9436 24.7675l119.063 29.4531c10.9666 2.71041 22.055-3.97807 24.7675-14.9436 2.71246-10.9656-3.97807-22.055-14.9436-24.7675l-119.063-29.4531C309.567 447.46 307.915 447.265 306.289 447.265ZM741.279 447.333c-1.61376 0-3.25413 0.192504-4.89144 0.594919l-119.54 29.3394c-10.9707 2.69301-17.6817 13.7691-14.9887 24.7398 2.69096 10.9707 13.7651 17.6878 24.7398 14.9887l119.54-29.3394c10.9707-2.69301 17.6817-13.7691 14.9887-24.7398C758.837 453.583 750.479 447.333 741.279 447.333Z"  horiz-adv-x="1024" />

    
    <glyph glyph-name="middle" unicode="&#58933;" d="M512.028 14.418999999999982c-49.8718 0-98.2651 9.77469-143.836 29.0517-44.0046 18.6155-83.5221 45.2589-117.455 79.1918s-60.5763 73.4495-79.1908 117.455c-19.278 45.5712-29.0527 93.9644-29.0527 143.836 0 49.8821 9.77469 98.2825 29.0517 143.859 18.6145 44.0086 45.2589 83.5283 79.1918 117.461 33.9319 33.9319 73.4495 60.5752 117.456 79.1887 45.5692 19.275 93.9634 29.0486 143.835 29.0486 49.8698 0 98.261-9.77367 143.829-29.0497 44.0046-18.6145 83.5201-45.2569 117.452-79.1887 33.9319-33.9329 60.5752-73.4525 79.1898-117.461 19.277-45.5753 29.0517-93.9757 29.0517-143.858 0-49.8718-9.77469-98.2651-29.0517-143.836-18.6155-44.0056-45.2579-83.5221-79.1898-117.455-33.9329-33.9329-73.4474-60.5763-117.452-79.1918C610.289 24.19399999999996 561.897 14.418999999999982 512.028 14.418999999999982ZM512.028 712.6030000000001c-181.205 0-328.627-147.431-328.627-328.649 0-181.206 147.421-328.627 328.627-328.627 181.198 0 328.614 147.421 328.614 328.627C840.642 565.172 693.227 712.6030000000001 512.028 712.6030000000001ZM372.396 523.6089999999999c25.7044 0 46.544-20.8406 46.544-46.5675 0-25.6808-20.8406-46.544-46.544-46.544-25.7034 0-46.544 20.8631-46.544 46.544C325.852 502.769 346.692 523.6089999999999 372.396 523.6089999999999ZM651.648 523.6089999999999c25.7044 0 46.544-20.8406 46.544-46.5675 0-25.6808-20.8406-46.544-46.544-46.544s-46.544 20.8631-46.544 46.544C605.104 502.769 625.945 523.6089999999999 651.648 523.6089999999999ZM395.667 267.59400000000005l232.709 0c12.864 0 23.2725-10.4085 23.2725-23.2725 0-12.8179-10.4085-23.2725-23.2725-23.2725L395.667 221.04899999999998c-12.8629 0-23.2725 10.4546-23.2725 23.2725C372.396 257.18499999999994 382.804 267.59400000000005 395.667 267.59400000000005Z"  horiz-adv-x="1024" />

    
    <glyph glyph-name="good" unicode="&#58934;" d="M512.017 13.065000000000054c-50.0643 0-98.6429 9.81053-144.386 29.1592-44.1704 18.6821-83.8344 45.4238-117.891 79.4806-34.0558 34.0568-60.7964 73.7188-79.4785 117.886-19.3466 45.7381-29.1562 94.3095-29.1562 144.364 0 50.0654 9.80951 98.6429 29.1562 144.385 18.6821 44.1715 45.4227 83.8365 79.4795 117.892 34.0558 34.0558 73.7208 60.7974 117.892 79.4785 45.7422 19.3466 94.3208 29.1562 144.386 29.1562 50.0633 0 98.6378-9.80951 144.376-29.1562 44.1674-18.6821 83.8283-45.4227 117.881-79.4795s60.7893-73.7208 79.4683-117.892c19.3446-45.7412 29.1521-94.3197 29.1521-144.385 0-50.0551-9.80746-98.6255-29.1521-144.363-18.68-44.1674-45.4166-83.8303-79.4683-117.886-34.0537-34.0568-73.7147-60.7985-117.881-79.4816C610.654 22.875999999999976 562.079 13.065000000000054 512.017 13.065000000000054ZM512.017 711.233c-180.462 0-327.278-146.816-327.278-327.278 0-180.45 146.816-327.256 327.278-327.256 180.443 0 327.243 146.806 327.243 327.256C839.261 564.4169999999999 692.46 711.233 512.017 711.233ZM349.116 546.855c25.6808 0 46.5429-20.817 46.5429-46.5429 0-25.6808-20.8631-46.5429-46.5429-46.5429-25.7259 0-46.5429 20.8631-46.5429 46.5429C302.573 526.038 323.39 546.855 349.116 546.855ZM674.906 546.855c25.7034 0 46.5429-20.817 46.5429-46.5429 0-25.6808-20.8406-46.5429-46.5429-46.5429-25.7044 0-46.5214 20.8631-46.5214 46.5429C628.385 526.038 649.202 546.855 674.906 546.855ZM511.994 127.96900000000005c-95.443 0-178.753 64.6086-202.594 157.115-3.20806 12.4452 4.28219 25.1351 16.7274 28.3431 12.4472 3.20601 25.1361-4.28219 28.3431-16.7274 18.5408-71.9432 83.3173-122.189 157.523-122.189 74.2062 0 138.997 50.2486 157.558 122.195 3.21113 12.4431 15.899 19.9313 28.3482 16.7202 12.4441-3.21113 19.9313-15.9021 16.7202-28.3482C690.755 192.57399999999995 607.431 127.96900000000005 511.994 127.96900000000005Z"  horiz-adv-x="1024" />

    
    <glyph glyph-name="pullDown" unicode="&#58936;" d="M511.994 267.60299999999995c-5.95636 0-11.9107 2.27114-16.455 6.81546L262.823 507.134c-9.08762 9.08762-9.08762 23.8224 0 32.911 9.08762 9.08864 23.8234 9.08864 32.911 0l216.261-216.26 216.27 216.261c9.08864 9.08864 23.8234 9.08762 32.912 0 9.08762-9.08864 9.08659-23.8234-0.001024-32.911l-232.726-232.715C523.906 269.875 517.949 267.60299999999995 511.994 267.60299999999995Z"  horiz-adv-x="1024" />

    
    <glyph glyph-name="gouxuan" unicode="&#58937;" d="M413.294642 57.972405c-8.935049 0-17.866002 3.407729-24.682483 10.224211L125.306737 331.501013c-13.631939 13.631939-13.631939 35.734051 0 49.365991 13.631939 13.631939 35.734051 13.631939 49.365991 0l238.621914-238.621914 436.077685 436.055158c13.630916 13.630916 35.733027 13.631939 49.365991-0.001024 13.631939-13.631939 13.631939-35.734051-0.001024-49.365991l-460.760168-460.737641C431.161667 61.381158 422.226618 57.972405 413.294642 57.972405z"  horiz-adv-x="1024" />

    
    <glyph glyph-name="shoucang" unicode="&#58938;" d="M928.891803 396.240694c-4.862772 14.704022-18.294016 25.021413-35.998232 27.56697L655.722604 457.920791 549.658066 670.570036c-7.909044 15.885669-21.976165 25.384918-37.634515 25.384918s-29.737759-9.499249-37.634515-25.362391L368.313235 457.920791 131.141244 423.807664c-17.726743-2.545557-31.180514-12.862948-36.009496-27.589497-4.841269-14.726549-0.057342-30.908142 12.738025-43.247848L279.510565 187.421048l-40.52105-233.762214c-2.420634-13.95551 0.670692-26.818458 8.693395-36.226574 7.260879-8.545945 18.055434-13.409741 29.6241-13.409741 7.499461 0 15.090054 1.95371 22.578252 5.864202L512.023551 20.245734l212.127027-110.359013c19.022049-9.907808 40.226151-6.500079 52.202352 7.545539 8.043182 9.408117 11.089454 22.271065 8.682131 36.226574l-40.498523 233.762214L916.165041 352.970319C928.982935 365.356103 933.710544 381.514144 928.891803 396.240694zM690.719406 219.419704c-7.13698-6.909662-10.409547-16.81747-8.726162-26.591139l36.77132-212.263213-192.607334 100.221839c-8.861324 4.635453-19.408081 4.635453-28.270429 0l-192.627814-100.221839 36.793847 212.263213c1.692601 9.77367-1.568702 19.681477-8.726162 26.591139l-155.846254 150.32303 215.365803 30.975723c9.885281 1.431492 18.431226 7.568066 22.862912 16.431438l96.314419 193.104978 96.315443-193.104978c4.430662-8.863372 12.976607-14.998922 22.861888-16.431438l215.37809-30.975723L690.719406 219.419704z"  horiz-adv-x="1024" />

    
    <glyph glyph-name="fenxiang" unicode="&#58940;" d="M750.535901 158.383676c-43.287782 0-82.48588-17.828115-110.653913-46.518366L395.697941 252.750528c6.530798 16.423246 10.125911 34.322014 10.125911 53.044044 0 15.762794-2.554773 30.938861-7.255759 45.144216l229.464666 153.118433c25.846722-24.615926 60.805638-39.746939 99.232696-39.746939 79.398649 0 143.993952 64.595303 143.993952 143.993952 0 79.410937-64.595303 144.016479-143.993952 144.016479s-143.993952-64.605543-143.993952-144.016479c0-15.822183 2.573204-31.053544 7.309005-45.306001L361.184446 409.925879c-25.85901 24.683507-60.8681 39.862646-99.354547 39.862646-79.398649 0-143.993952-64.595303-143.993952-143.993952s64.595303-143.993952 143.993952-143.993952c35.346995 0 67.753186 12.809702 92.839109 34.020971L603.357443 52.336546c-5.162791-15.437176-7.966385-31.944386-7.966385-49.09669 0-85.547511 69.598357-155.145868 155.145868-155.145868 85.546487 0 155.144844 69.598357 155.144844 155.145868C905.680745 88.786343 836.082389 158.383676 750.535901 158.383676zM727.264431 673.780141c36.090388 0 65.451331-29.372206 65.451331-65.474882 0-36.090388-29.360943-65.452355-65.451331-65.452355s-65.451331 29.361967-65.451331 65.452355C661.8131 644.407935 691.174043 673.780141 727.264431 673.780141zM261.828875 240.343242c-36.090388 0-65.452355 29.360943-65.452355 65.451331s29.361967 65.452355 65.452355 65.452355 65.452355-29.361967 65.452355-65.452355S297.919263 240.343242 261.828875 240.343242zM750.535901-74.333078c-42.773756 0-77.572934 34.798154-77.572934 77.572934 0 42.772732 34.798154 77.57191 77.572934 77.57191 42.772732 0 77.57191-34.798154 77.57191-77.57191C828.107811-39.534924 793.309657-74.333078 750.535901-74.333078z"  horiz-adv-x="1024" />

    
    <glyph glyph-name="groupbooking" unicode="&#58953;" d="M511.999 895.981569C229.237 895.981569 0.017407 666.762 0.017407 384c0-282.763 229.219-511.982 511.982-511.982 282.763 0 511.983 229.218 511.983 511.982C1023.98 666.762 794.761 895.981569 511.999 895.981569ZM408.434 596.174c5.13617 1.15912 10.6133 0.97788 15.9543 1.36391 1.81855 0.136186 3.59102 0.045054 5.36349 0.045054 0.022527-0.204792 0.022527-0.477164 0.022527-0.659429 7.2957 0.477164 14.6129 0.54577 21.84 1.56768 9.20436 1.27278 15.1822 6.9322 18.2265 16.0905 1.5001 4.5003 3.27257 9.04462 5.70447 13.0678 9.0907 15.1136 28.2029 16.3403 38.9749 2.49948 2.95617-3.79581 4.90988-8.4538 7.09193-12.863 1.43149-2.93159 2.24964-6.13658 3.65758-9.06817 3.11386-6.77246 8.61353-8.97704 15.2058-5.99937 3.49989 1.59123 6.81751 3.84087 10.044 6.13658 5.54576 3.81834 11.5451 6.13658 18.1374 6.43148 2.02232 0.090108 4.08969 0.090108 6.06798-0.363505 8.52138-1.84005 12.8855-8.4538 11.0454-17.7042-0.910299-4.63648-2.70632-9.24941-4.8423-13.4538-11.3854-22.6356-18.6811-46.4754-19.9528-72.1337-0.159737-2.7954 0.04403-5.59081 0.318451-8.36267 0.795615-6.88612-2.13598-12.0684-7.63565-15.2498-5.63791-3.22752-11.5451-6.13658-17.6817-8.2275-21.8871-7.40834-44.2268-7.93158-66.7027-3.81834-8.13637 1.54515-16.2041 3.6586-24.1582 5.93077-7.06736 2.06839-12.0909 6.7274-14.8402 14.1357-6.25024 16.6813-12.6582 33.294-19.2269 49.7941-3.40876 8.56746-7.43086 16.8861-11.068 25.3624-1.13659 2.75035-2.18205 5.68194-2.63669 8.65961C396.117 588.0840000000001 399.958 594.288 408.434 596.174ZM732.969 212.62c-4.58938-15.2508-12.0213-28.7497-22.7247-40.2723-13.1814-14.1357-29.319-23.0667-46.9761-29.362-20.1597-7.11344-40.9768-11.069-62.1573-13.2951-3.68215-0.386032-7.38581-0.976856-11.068-1.5001L436.843 128.19000000000005c-0.773088 0.182265-1.54515 0.43211-2.34077 0.523243-15.7044 1.38644-31.3628 3.25004-46.8164 6.63525-18.4087 4.04566-36.3167 9.63647-52.7943 19.4317-23.5213 13.9309-38.2264 34.8391-44.8391 61.9751-5.90926 23.8633-6.47756 48.0892-2.97767 72.4061 3.56849 24.5678 11.6363 47.5209 23.6811 68.9748 13.3176 23.7722 30.5897 44.0445 50.5897 61.9065 19.2719 17.2721 40.817 30.5672 64.4971 40.2262 3.68215 1.5001 6.99978 1.43149 10.4096-0.749537 3.72721-2.3633 7.49947-4.75014 11.5451-6.54514 10.1812-4.61293 21.0894-6.68133 32.0898-7.70426 16.9762-1.56768 33.8162-0.976856 50.4975 2.47695 12.7739 2.65922 24.9989 6.54514 35.7269 14.7266 7.3172 5.63587 7.40731 5.49968 16.2277 2.77288l0.182265-0.091132c12.4995-4.04566 24.1787-9.93137 35.6102-16.3628 23.7046-13.3176 44.6804-30.5221 63.5212-50.476 32.8168-34.7265 53.0441-75.7934 56.7713-124.836C740.014 252.89 738.968 232.437 732.969 212.62ZM531.431 283.049l0.818142 1.40897 36.6341 0c7.864 0 14.2279 6.36287 14.2279 14.2043 0 7.86297-6.3639 14.2269-14.2279 14.2269l-20.2252 0 25.4525 44.066c3.90742 6.79601 1.59021 15.4997-5.22731 19.4317-6.81751 3.90947-15.4997 1.59123-19.4317-5.22628l-33.6565-58.2704-7.59163 0-33.6575 58.2704c-3.932 6.81751-12.6131 9.13678-19.4317 5.22628-6.81751-3.932-9.13575-12.6356-5.22628-19.4317l25.4535-44.066-20.2262 0c-7.86297 0-14.2269-6.3639-14.2269-14.2269 0-7.84147 6.36287-14.2043 14.2269-14.2043l36.6352 0 0.818142-1.40897c1.27278-2.20458 3.15993-3.74973 5.20478-4.95493l0-7.86297-42.6581 0c-7.86297 0-14.2269-6.3639-14.2269-14.2279 0-7.84045 6.36287-14.2269 14.2269-14.2269l42.6581 0 0-42.6581c0-7.84045 6.3854-14.2269 14.2269-14.2269 7.84045 0 14.2279 6.3854 14.2279 14.2269l0 42.6581 42.656 0c7.864 0 14.2279 6.3854 14.2279 14.2269 0 7.864-6.3639 14.2279-14.2279 14.2279l-42.656 0 0 7.86297C528.271 279.29999999999995 530.158 280.84400000000005 531.431 283.049Z"  horiz-adv-x="1024" />

    
    <glyph glyph-name="kefu" unicode="&#59019;" d="M884.165 444.506c-2.494 203.504-168.046 367.753-372.161 367.753s-369.666-164.249-372.165-367.753c-34.163-27.314-56.096-69.25-56.096-116.37 0-82.254 66.697-148.969 148.96-148.969 35.899 0 68.818 12.726 94.534 33.857l-70.18 261.923c-7.949 1.294-16.045 2.155-24.353 2.155-5.474 0-10.855-0.339-16.183-0.926 17.954 147.35 143.268 261.601 295.488 261.601 152.199 0 277.532-114.25 295.481-261.601-5.306 0.583-10.705 0.926-16.18 0.926-8.305 0-16.421-0.863-24.375-2.155l-70.159-261.801c19.847-16.295 43.981-27.559 70.459-31.868-35.138-37.751-79.825-66.511-130.378-82.068l-6.164-6.156c-15.77 28.99-46.122 48.892-81.442 48.892-51.427 0-93.102-41.674-93.102-93.118 0-51.431 41.673-93.104 93.102-93.104 42.211 0 77.419 28.27 88.852 66.758 102.752 25.189 188.829 92.829 238.272 183.482 38.595 26.917 63.899 71.562 63.899 122.175-0.002 47.108-21.955 89.058-56.102 116.371Z"  horiz-adv-x="1024" />

    


  </font>
</defs>
</svg>
